<svg width="46" height="35" viewBox="0 0 46 35" fill="none" xmlns="http://www.w3.org/2000/svg">
<g clip-path="url(#clip0_3_51)">
<path fill-rule="evenodd" clip-rule="evenodd" d="M4.13649 21.625L2 21.625C0.895431 21.625 0 22.5204 0 23.625V33.125C0 34.2296 0.89543 35.125 2 35.125H44C45.1046 35.125 46 34.2296 46 33.125V23.625C46 22.5204 45.1046 21.625 44 21.625H40.7865C40.7809 21.6839 40.7752 21.7429 40.7692 21.8019L40.724 22.2537L40.3539 22.517C37.5908 24.4829 34.4978 25.9748 31.211 26.9284L30.558 27.1178L30.1417 26.5803C29.3906 25.6105 28.7262 24.5806 28.1557 23.5016L28.0628 23.3259C26.2404 23.7939 24.3576 24.0328 22.4613 24.0328C20.5629 24.0328 18.678 23.7934 16.8537 23.3243L16.7611 23.4993C16.1903 24.5783 15.5262 25.6086 14.776 26.5794L14.3592 27.1188L13.7048 26.928C10.4213 25.9707 7.33111 24.4783 4.56887 22.5146L4.19802 22.2509L4.15317 21.7981C4.14746 21.7404 4.1419 21.6827 4.13649 21.625ZM5.14101 21.625C5.14341 21.6498 5.14584 21.6747 5.1483 21.6995C7.81855 23.5979 10.8073 25.0416 13.9847 25.968C14.4925 25.3109 14.9587 24.6254 15.3811 23.9152C15.5509 23.6297 15.7136 23.3402 15.8691 23.047L15.8772 23.0316C15.5609 22.9179 15.248 22.7961 14.9388 22.6663C14.5823 22.5167 14.2307 22.3565 13.8846 22.1859C13.6846 22.0873 13.4864 21.9853 13.2901 21.8798C13.1582 21.8089 13.0271 21.7365 12.897 21.6625C12.9149 21.65 12.9327 21.6375 12.9506 21.625L5.14101 21.625ZM14.8062 21.625C15.2685 21.8015 15.7368 21.9618 16.21 22.1056C16.3001 22.1329 16.3904 22.1597 16.4808 22.1859C18.4155 22.746 20.43 23.0328 22.4613 23.0328C24.4961 23.0328 26.5143 22.745 28.4521 22.1829C28.5371 22.1583 28.6219 22.1331 28.7065 22.1074C29.1818 21.9631 29.6521 21.8022 30.1163 21.625L14.8062 21.625ZM31.9685 21.625C31.9875 21.6376 32.0065 21.6501 32.0256 21.6625C31.8954 21.7365 31.7643 21.8089 31.6324 21.8798C31.4339 21.9864 31.2334 22.0896 31.0311 22.1892C30.6853 22.3595 30.3342 22.5195 29.9782 22.6689C29.669 22.7987 29.3561 22.9205 29.0398 23.0343L29.0475 23.0489C29.203 23.3424 29.3658 23.6321 29.5358 23.9178C29.9579 24.6273 30.4243 25.312 30.9323 25.968C34.1124 25.0453 37.1035 23.6023 39.7742 21.7022C39.7768 21.6764 39.7793 21.6507 39.7819 21.625L31.9685 21.625ZM36.5 32.125C37.3284 32.125 38 31.4534 38 30.625C38 29.7966 37.3284 29.125 36.5 29.125C35.6716 29.125 35 29.7966 35 30.625C35 31.4534 35.6716 32.125 36.5 32.125ZM43 30.625C43 31.4534 42.3284 32.125 41.5 32.125C40.6716 32.125 40 31.4534 40 30.625C40 29.7966 40.6716 29.125 41.5 29.125C42.3284 29.125 43 29.7966 43 30.625Z" fill="#5865F2"/>
<path d="M34.6483 2.17746C32.3488 1.14558 29.9212 0.413522 27.4276 0C27.0863 0.597893 26.7776 1.21304 26.5026 1.84288C23.8464 1.45057 21.1452 1.45057 18.489 1.84288C18.2139 1.21311 17.9051 0.597965 17.5641 0C15.0688 0.417015 12.6396 1.15081 10.3378 2.18286C5.76802 8.80967 4.52923 15.2719 5.14863 21.6424C7.82479 23.5804 10.8202 25.0543 14.0046 26C14.7216 25.0548 15.3561 24.052 15.9013 23.0023C14.8658 22.6232 13.8663 22.1555 12.9145 21.6046C13.165 21.4265 13.41 21.243 13.6467 21.065C16.4164 22.3416 19.4393 23.0035 22.4999 23.0035C25.5606 23.0035 28.5835 22.3416 31.3532 21.065C31.5927 21.2565 31.8377 21.44 32.0854 21.6046C31.1317 22.1564 30.1304 22.625 29.093 23.005C29.6376 24.0542 30.2721 25.0561 30.9898 26C34.1769 25.0581 37.1746 23.5849 39.8512 21.6451C40.578 14.2574 38.6097 7.8545 34.6483 2.17746ZM16.6859 17.7246C14.9598 17.7246 13.5339 16.1893 13.5339 14.3005C13.5339 12.4118 14.9103 10.863 16.6804 10.863C18.4505 10.863 19.8654 12.4118 19.8352 14.3005C19.8049 16.1893 18.445 17.7246 16.6859 17.7246ZM28.314 17.7246C26.5852 17.7246 25.1647 16.1893 25.1647 14.3005C25.1647 12.4118 26.5411 10.863 28.314 10.863C30.0868 10.863 31.4908 12.4118 31.4605 14.3005C31.4302 16.1893 30.0731 17.7246 28.314 17.7246Z" fill="#5865F2"/>
</g>
<defs>
<clipPath id="clip0_3_51">
<rect width="46" height="35" fill="white"/>
</clipPath>
</defs>
</svg>
