<svg width="220" height="35" viewBox="0 0 220 35" fill="none" xmlns="http://www.w3.org/2000/svg">
<g clip-path="url(#clip0_3_979)">
<g clip-path="url(#clip1_3_979)">
<g clip-path="url(#clip2_3_979)">
<path fill-rule="evenodd" clip-rule="evenodd" d="M3.10547 21.625L2 21.625C0.895431 21.625 0 22.5204 0 23.625V33.125C0 34.2296 0.89543 35.125 2 35.125H44C45.1046 35.125 46 34.2296 46 33.125V23.625C46 22.5204 45.1046 21.625 44 21.625H41.8178C41.802 21.8249 41.7844 22.0254 41.765 22.2266L41.6795 23.1133L40.9633 23.6428C38.1078 25.7542 34.9098 27.3576 31.5097 28.3828L30.1668 28.7877L29.3287 27.6631C28.6619 26.7684 28.0608 25.8269 27.5301 24.8459C25.8722 25.2247 24.1721 25.4176 22.4613 25.4176C20.7482 25.4176 19.046 25.2242 17.3861 24.8445C16.8555 25.8249 16.2552 26.7663 15.5897 27.6613L14.7506 28.7898L13.4047 28.382C10.0086 27.353 6.81396 25.7493 3.95982 23.6405L3.24199 23.1101L3.15732 22.2217C3.13838 22.0229 3.12108 21.824 3.10547 21.625ZM5.11198 21.625C5.12326 21.7607 5.13538 21.8963 5.1483 22.0319C7.81855 24.0048 10.8073 25.5053 13.9847 26.468C14.2973 26.0476 14.5941 25.616 14.8747 25.1741C15.0579 24.8855 15.2342 24.5926 15.4034 24.2955C15.5681 24.0063 15.7261 23.7131 15.8772 23.4163C15.515 23.281 15.1572 23.1347 14.8043 22.9774C14.5469 22.8627 14.292 22.7422 14.04 22.6161C13.7798 22.4858 13.5227 22.3495 13.2687 22.2073C13.144 22.1375 13.0201 22.0662 12.897 21.9935C13.0644 21.872 13.2294 21.7481 13.3912 21.625H5.11198ZM14.0229 21.625C14.7449 21.9462 15.4831 22.2253 16.2339 22.4614C16.9236 22.6784 17.624 22.859 18.332 23.0027C19.6871 23.2778 21.0703 23.4176 22.4613 23.4176C23.8503 23.4176 25.2315 23.2782 26.5847 23.0039C27.2927 22.8604 27.9929 22.68 28.6826 22.4633C29.4355 22.2268 30.1757 21.9471 30.8996 21.625L14.0229 21.625ZM31.5215 21.625C31.6876 21.7545 31.8559 21.8785 32.0256 21.9935C31.9024 22.0662 31.7785 22.1374 31.6538 22.2073C31.398 22.3505 31.1391 22.4877 30.877 22.6188C30.6041 22.7554 30.3279 22.8853 30.0486 23.0085C29.7165 23.155 29.3801 23.2919 29.0398 23.4191C29.1907 23.7156 29.3485 24.0085 29.513 24.2975C29.6824 24.5948 29.859 24.888 30.0425 25.1767C30.3229 25.6178 30.6197 26.0485 30.9323 26.468C34.1124 25.5091 37.1035 24.0094 39.7742 22.0347C39.7874 21.8978 39.7997 21.7612 39.8111 21.625H31.5215ZM36.5 32.125C37.3284 32.125 38 31.4534 38 30.625C38 29.7966 37.3284 29.125 36.5 29.125C35.6716 29.125 35 29.7966 35 30.625C35 31.4534 35.6716 32.125 36.5 32.125ZM43 30.625C43 31.4534 42.3284 32.125 41.5 32.125C40.6716 32.125 40 31.4534 40 30.625C40 29.7966 40.6716 29.125 41.5 29.125C42.3284 29.125 43 29.7966 43 30.625Z" fill="#5865F2"/>
<path d="M34.6483 2.17746C32.3488 1.14558 29.9212 0.413522 27.4276 0C27.0863 0.597893 26.7776 1.21304 26.5026 1.84288C23.8464 1.45057 21.1452 1.45057 18.489 1.84288C18.2139 1.21311 17.9051 0.597965 17.5641 0C15.0688 0.417015 12.6396 1.15081 10.3378 2.18286C5.76802 8.80967 4.52923 15.2719 5.14863 21.6424C7.82479 23.5804 10.8202 25.0543 14.0046 26C14.7216 25.0548 15.3561 24.052 15.9013 23.0023C14.8658 22.6232 13.8663 22.1555 12.9145 21.6046C13.165 21.4265 13.41 21.243 13.6467 21.065C16.4164 22.3416 19.4393 23.0035 22.4999 23.0035C25.5606 23.0035 28.5835 22.3416 31.3532 21.065C31.5927 21.2565 31.8377 21.44 32.0854 21.6046C31.1317 22.1564 30.1304 22.625 29.093 23.005C29.6376 24.0542 30.2721 25.0561 30.9898 26C34.1769 25.0581 37.1746 23.5849 39.8512 21.6451C40.578 14.2574 38.6097 7.8545 34.6483 2.17746ZM16.6859 17.7246C14.9598 17.7246 13.5339 16.1893 13.5339 14.3005C13.5339 12.4118 14.9103 10.863 16.6804 10.863C18.4505 10.863 19.8654 12.4118 19.8352 14.3005C19.8049 16.1893 18.445 17.7246 16.6859 17.7246ZM28.314 17.7246C26.5852 17.7246 25.1647 16.1893 25.1647 14.3005C25.1647 12.4118 26.5411 10.863 28.314 10.863C30.0868 10.863 31.4908 12.4118 31.4605 14.3005C31.4302 16.1893 30.0731 17.7246 28.314 17.7246Z" fill="#5865F2"/>
</g>
<path d="M57.776 25.5V8.46H63.968C65.824 8.46 67.376 8.844 68.624 9.612C69.872 10.364 70.808 11.388 71.432 12.684C72.056 13.964 72.368 15.388 72.368 16.956C72.368 18.684 72.024 20.188 71.336 21.468C70.648 22.748 69.672 23.74 68.408 24.444C67.16 25.148 65.68 25.5 63.968 25.5H57.776ZM69.032 16.956C69.032 15.852 68.832 14.884 68.432 14.052C68.032 13.204 67.456 12.548 66.704 12.084C65.952 11.604 65.04 11.364 63.968 11.364H61.088V22.596H63.968C65.056 22.596 65.976 22.356 66.728 21.876C67.48 21.38 68.048 20.708 68.432 19.86C68.832 18.996 69.032 18.028 69.032 16.956ZM82.0848 15.708C81.1088 15.708 80.2368 15.9 79.4688 16.284C78.7008 16.652 78.1488 17.188 77.8128 17.892V25.5H74.5968V12.924H77.5488V15.612C77.9968 14.748 78.5648 14.068 79.2528 13.572C79.9408 13.076 80.6688 12.804 81.4368 12.756C81.6128 12.756 81.7488 12.756 81.8448 12.756C81.9408 12.756 82.0208 12.764 82.0848 12.78V15.708ZM83.8781 25.5V12.924H87.0941V25.5H83.8781ZM83.8781 11.172V7.98H87.0941V11.172H83.8781ZM93.3793 25.5L88.7473 12.924H92.0833L95.2513 22.572L98.4433 12.924H101.491L96.8833 25.5H93.3793ZM108.601 25.74C107.593 25.74 106.681 25.572 105.865 25.236C105.049 24.884 104.353 24.412 103.777 23.82C103.201 23.212 102.753 22.524 102.433 21.756C102.129 20.972 101.977 20.148 101.977 19.284C101.977 18.084 102.241 16.988 102.769 15.996C103.313 15.004 104.081 14.212 105.073 13.62C106.081 13.012 107.265 12.708 108.625 12.708C110.001 12.708 111.177 13.012 112.153 13.62C113.129 14.212 113.873 15.004 114.385 15.996C114.913 16.972 115.177 18.028 115.177 19.164C115.177 19.356 115.169 19.556 115.153 19.764C115.137 19.956 115.121 20.116 115.105 20.244H105.385C105.449 20.884 105.633 21.444 105.937 21.924C106.257 22.404 106.657 22.772 107.137 23.028C107.633 23.268 108.161 23.388 108.721 23.388C109.361 23.388 109.961 23.236 110.521 22.932C111.097 22.612 111.489 22.196 111.697 21.684L114.457 22.452C114.153 23.092 113.713 23.66 113.137 24.156C112.577 24.652 111.913 25.044 111.145 25.332C110.377 25.604 109.529 25.74 108.601 25.74ZM105.313 18.204H111.889C111.825 17.564 111.641 17.012 111.337 16.548C111.049 16.068 110.665 15.7 110.185 15.444C109.705 15.172 109.169 15.036 108.577 15.036C108.001 15.036 107.473 15.172 106.993 15.444C106.529 15.7 106.145 16.068 105.841 16.548C105.553 17.012 105.377 17.564 105.313 18.204ZM122.992 25.74C121.968 25.74 121.048 25.572 120.232 25.236C119.416 24.884 118.72 24.404 118.144 23.796C117.568 23.172 117.12 22.468 116.8 21.684C116.496 20.9 116.344 20.076 116.344 19.212C116.344 18.028 116.608 16.948 117.136 15.972C117.68 14.98 118.448 14.188 119.44 13.596C120.432 13.004 121.608 12.708 122.968 12.708C124.328 12.708 125.496 13.004 126.472 13.596C127.448 14.188 128.176 14.964 128.656 15.924L125.512 16.884C125.24 16.42 124.88 16.068 124.432 15.828C123.984 15.572 123.488 15.444 122.944 15.444C122.336 15.444 121.776 15.604 121.264 15.924C120.768 16.228 120.376 16.668 120.088 17.244C119.8 17.804 119.656 18.46 119.656 19.212C119.656 19.948 119.8 20.604 120.088 21.18C120.392 21.74 120.792 22.188 121.288 22.524C121.784 22.844 122.336 23.004 122.944 23.004C123.328 23.004 123.688 22.94 124.024 22.812C124.376 22.684 124.688 22.508 124.96 22.284C125.232 22.06 125.432 21.804 125.56 21.516L128.704 22.476C128.416 23.1 127.992 23.66 127.432 24.156C126.888 24.652 126.24 25.044 125.488 25.332C124.752 25.604 123.92 25.74 122.992 25.74ZM136.374 25.74C135.35 25.74 134.43 25.572 133.614 25.236C132.798 24.884 132.102 24.404 131.526 23.796C130.966 23.188 130.534 22.492 130.23 21.708C129.926 20.924 129.774 20.1 129.774 19.236C129.774 18.356 129.926 17.524 130.23 16.74C130.534 15.956 130.966 15.26 131.526 14.652C132.102 14.044 132.798 13.572 133.614 13.236C134.43 12.884 135.35 12.708 136.374 12.708C137.398 12.708 138.31 12.884 139.11 13.236C139.926 13.572 140.622 14.044 141.198 14.652C141.774 15.26 142.206 15.956 142.494 16.74C142.798 17.524 142.95 18.356 142.95 19.236C142.95 20.1 142.798 20.924 142.494 21.708C142.206 22.492 141.774 23.188 141.198 23.796C140.638 24.404 139.95 24.884 139.134 25.236C138.318 25.572 137.398 25.74 136.374 25.74ZM133.086 19.236C133.086 19.972 133.23 20.628 133.518 21.204C133.806 21.764 134.198 22.204 134.694 22.524C135.19 22.844 135.75 23.004 136.374 23.004C136.982 23.004 137.534 22.844 138.03 22.524C138.526 22.188 138.918 21.74 139.206 21.18C139.51 20.604 139.662 19.948 139.662 19.212C139.662 18.492 139.51 17.844 139.206 17.268C138.918 16.692 138.526 16.244 138.03 15.924C137.534 15.604 136.982 15.444 136.374 15.444C135.75 15.444 135.19 15.612 134.694 15.948C134.198 16.268 133.806 16.716 133.518 17.292C133.23 17.852 133.086 18.5 133.086 19.236ZM152.608 15.708C151.632 15.708 150.76 15.9 149.992 16.284C149.224 16.652 148.672 17.188 148.336 17.892V25.5H145.12V12.924H148.072V15.612C148.52 14.748 149.088 14.068 149.776 13.572C150.464 13.076 151.192 12.804 151.96 12.756C152.136 12.756 152.272 12.756 152.368 12.756C152.464 12.756 152.544 12.764 152.608 12.78V15.708ZM153.516 19.212C153.516 17.996 153.756 16.9 154.236 15.924C154.716 14.932 155.38 14.148 156.228 13.572C157.076 12.996 158.044 12.708 159.132 12.708C160.06 12.708 160.892 12.94 161.628 13.404C162.38 13.852 162.964 14.428 163.38 15.132V7.98H166.596V21.9C166.596 22.236 166.652 22.476 166.764 22.62C166.876 22.764 167.068 22.852 167.34 22.884V25.5C166.78 25.612 166.324 25.668 165.972 25.668C165.396 25.668 164.916 25.524 164.532 25.236C164.164 24.948 163.956 24.572 163.908 24.108L163.86 23.316C163.396 24.1 162.764 24.7 161.964 25.116C161.18 25.532 160.356 25.74 159.492 25.74C158.628 25.74 157.828 25.572 157.092 25.236C156.372 24.9 155.74 24.436 155.196 23.844C154.668 23.252 154.252 22.564 153.948 21.78C153.66 20.98 153.516 20.124 153.516 19.212ZM163.38 20.892V17.892C163.22 17.428 162.964 17.012 162.612 16.644C162.26 16.276 161.868 15.988 161.436 15.78C161.004 15.556 160.572 15.444 160.14 15.444C159.644 15.444 159.196 15.548 158.796 15.756C158.396 15.964 158.044 16.244 157.74 16.596C157.452 16.948 157.228 17.356 157.068 17.82C156.924 18.284 156.852 18.772 156.852 19.284C156.852 19.796 156.932 20.284 157.092 20.748C157.268 21.196 157.516 21.588 157.836 21.924C158.156 22.26 158.524 22.524 158.94 22.716C159.372 22.908 159.836 23.004 160.332 23.004C160.636 23.004 160.94 22.956 161.244 22.86C161.564 22.748 161.86 22.604 162.132 22.428C162.42 22.236 162.668 22.012 162.876 21.756C163.1 21.484 163.268 21.196 163.38 20.892Z" fill="white"/>
</g>
<rect x="174" y="5.5" width="46" height="24" rx="5" fill="#57F287"/>
<path fill-rule="evenodd" clip-rule="evenodd" d="M210.383 15.3051L215.065 12.4025L211.939 9.5L211.423 11.425H193.785C192.188 11.425 190.558 12.6755 190.145 14.218L188.311 21.0607C187.898 22.6033 188.858 23.8537 190.455 23.8537H197.394L197.91 21.9287L197.918 21.8986L198.658 19.1357C198.803 18.5959 198.467 18.1582 197.908 18.1582H194.872C194.313 18.1582 193.743 18.5959 193.598 19.1357C193.454 19.6756 193.789 20.1133 194.348 20.1133L196.372 20.1133L195.894 21.8986H190.978C190.499 21.8986 190.212 21.5235 190.336 21.0607L192.169 14.218C192.293 13.7552 192.782 13.3801 193.261 13.3801H210.899L210.383 15.3051ZM189.254 14.8464C189.109 15.3863 188.539 15.8239 187.98 15.8239L181.329 15.8239C180.77 15.8239 180.435 15.3863 180.579 14.8464C180.724 14.3065 181.294 13.8688 181.853 13.8688L188.504 13.8688C189.063 13.8688 189.398 14.3065 189.254 14.8464ZM203.059 16.2031H206.962C207.441 16.2031 207.729 16.5783 207.605 17.041L206.52 21.0908C206.396 21.5536 205.907 21.9287 205.428 21.9287H201.524C201.045 21.9287 200.757 21.5536 200.881 21.0908L201.967 17.041C202.091 16.5783 202.579 16.2031 203.059 16.2031ZM199.943 17.041C200.356 15.4985 201.985 14.248 203.582 14.248H207.486C209.083 14.248 210.042 15.4985 209.629 17.041L208.544 21.0908C208.131 22.6333 206.501 23.8838 204.904 23.8838H201C199.404 23.8838 198.444 22.6333 198.857 21.0908L199.943 17.041ZM187.231 18.6169C187.79 18.6169 188.361 18.1792 188.505 17.6394C188.65 17.0995 188.314 16.6618 187.755 16.6618L181.105 16.6618C180.546 16.6618 179.976 17.0995 179.831 17.6394C179.686 18.1792 180.022 18.6169 180.581 18.6169H187.231ZM187.757 20.4323C187.612 20.9722 187.042 21.4099 186.483 21.4099L179.833 21.4099C179.274 21.4099 178.938 20.9722 179.083 20.4323C179.227 19.8924 179.798 19.4548 180.356 19.4548L187.007 19.4548C187.566 19.4548 187.902 19.8924 187.757 20.4323Z" fill="#166534"/>
</g>
<defs>
<clipPath id="clip0_3_979">
<rect width="220" height="35" fill="white"/>
</clipPath>
<clipPath id="clip1_3_979">
<rect width="169" height="35" fill="white"/>
</clipPath>
<clipPath id="clip2_3_979">
<rect width="46" height="35" fill="white"/>
</clipPath>
</defs>
</svg>
