<svg width="46" height="35" viewBox="0 0 46 35" fill="none" xmlns="http://www.w3.org/2000/svg">
<g clip-path="url(#clip0_3_51)">
<path fill-rule="evenodd" clip-rule="evenodd" d="M3.10547 21.625L2 21.625C0.895431 21.625 0 22.5204 0 23.625V33.125C0 34.2296 0.89543 35.125 2 35.125H44C45.1046 35.125 46 34.2296 46 33.125V23.625C46 22.5204 45.1046 21.625 44 21.625H41.8178C41.802 21.8249 41.7844 22.0254 41.765 22.2266L41.6795 23.1133L40.9633 23.6428C38.1078 25.7542 34.9098 27.3576 31.5097 28.3828L30.1668 28.7877L29.3287 27.6631C28.6619 26.7684 28.0608 25.8269 27.5301 24.8459C25.8722 25.2247 24.1721 25.4176 22.4613 25.4176C20.7482 25.4176 19.046 25.2242 17.3861 24.8445C16.8555 25.8249 16.2552 26.7663 15.5897 27.6613L14.7506 28.7898L13.4047 28.382C10.0086 27.353 6.81396 25.7493 3.95982 23.6405L3.24199 23.1101L3.15732 22.2217C3.13838 22.0229 3.12108 21.824 3.10547 21.625ZM5.11198 21.625C5.12326 21.7607 5.13538 21.8963 5.1483 22.0319C7.81855 24.0048 10.8073 25.5053 13.9847 26.468C14.2973 26.0476 14.5941 25.616 14.8747 25.1741C15.0579 24.8855 15.2342 24.5926 15.4034 24.2955C15.5681 24.0063 15.7261 23.7131 15.8772 23.4163C15.515 23.281 15.1572 23.1347 14.8043 22.9774C14.5469 22.8627 14.292 22.7422 14.04 22.6161C13.7798 22.4858 13.5227 22.3495 13.2687 22.2073C13.144 22.1375 13.0201 22.0662 12.897 21.9935C13.0644 21.872 13.2294 21.7481 13.3912 21.625H5.11198ZM14.0229 21.625C14.7449 21.9462 15.4831 22.2253 16.2339 22.4614C16.9236 22.6784 17.624 22.859 18.332 23.0027C19.6871 23.2778 21.0703 23.4176 22.4613 23.4176C23.8503 23.4176 25.2315 23.2782 26.5847 23.0039C27.2927 22.8604 27.9929 22.68 28.6826 22.4633C29.4355 22.2268 30.1757 21.9471 30.8996 21.625L14.0229 21.625ZM31.5215 21.625C31.6876 21.7545 31.8559 21.8785 32.0256 21.9935C31.9024 22.0662 31.7785 22.1374 31.6538 22.2073C31.398 22.3505 31.1391 22.4877 30.877 22.6188C30.6041 22.7554 30.3279 22.8853 30.0486 23.0085C29.7165 23.155 29.3801 23.2919 29.0398 23.4191C29.1907 23.7156 29.3485 24.0085 29.513 24.2975C29.6824 24.5948 29.859 24.888 30.0425 25.1767C30.3229 25.6178 30.6197 26.0485 30.9323 26.468C34.1124 25.5091 37.1035 24.0094 39.7742 22.0347C39.7874 21.8978 39.7997 21.7612 39.8111 21.625H31.5215ZM36.5 32.125C37.3284 32.125 38 31.4534 38 30.625C38 29.7966 37.3284 29.125 36.5 29.125C35.6716 29.125 35 29.7966 35 30.625C35 31.4534 35.6716 32.125 36.5 32.125ZM43 30.625C43 31.4534 42.3284 32.125 41.5 32.125C40.6716 32.125 40 31.4534 40 30.625C40 29.7966 40.6716 29.125 41.5 29.125C42.3284 29.125 43 29.7966 43 30.625Z" fill="#5865F2"/>
<path d="M34.6483 2.17746C32.3488 1.14558 29.9212 0.413522 27.4276 0C27.0863 0.597893 26.7776 1.21304 26.5026 1.84288C23.8464 1.45057 21.1452 1.45057 18.489 1.84288C18.2139 1.21311 17.9051 0.597965 17.5641 0C15.0688 0.417015 12.6396 1.15081 10.3378 2.18286C5.76802 8.80967 4.52923 15.2719 5.14863 21.6424C7.82479 23.5804 10.8202 25.0543 14.0046 26C14.7216 25.0548 15.3561 24.052 15.9013 23.0023C14.8658 22.6232 13.8663 22.1555 12.9145 21.6046C13.165 21.4265 13.41 21.243 13.6467 21.065C16.4164 22.3416 19.4393 23.0035 22.4999 23.0035C25.5606 23.0035 28.5835 22.3416 31.3532 21.065C31.5927 21.2565 31.8377 21.44 32.0854 21.6046C31.1317 22.1564 30.1304 22.625 29.093 23.005C29.6376 24.0542 30.2721 25.0561 30.9898 26C34.1769 25.0581 37.1746 23.5849 39.8512 21.6451C40.578 14.2574 38.6097 7.8545 34.6483 2.17746ZM16.6859 17.7246C14.9598 17.7246 13.5339 16.1893 13.5339 14.3005C13.5339 12.4118 14.9103 10.863 16.6804 10.863C18.4505 10.863 19.8654 12.4118 19.8352 14.3005C19.8049 16.1893 18.445 17.7246 16.6859 17.7246ZM28.314 17.7246C26.5852 17.7246 25.1647 16.1893 25.1647 14.3005C25.1647 12.4118 26.5411 10.863 28.314 10.863C30.0868 10.863 31.4908 12.4118 31.4605 14.3005C31.4302 16.1893 30.0731 17.7246 28.314 17.7246Z" fill="#5865F2"/>
</g>
<defs>
<clipPath id="clip0_3_51">
<rect width="46" height="35" fill="white"/>
</clipPath>
</defs>
</svg>
