<svg width="70" height="33" viewBox="0 0 70 33" fill="none" xmlns="http://www.w3.org/2000/svg">
<rect width="70.0097" height="33" rx="5" fill="#57F287"/>
<path fill-rule="evenodd" clip-rule="evenodd" d="M57.027 13.5522L64.7299 8.7761L59.5865 4L58.7377 7.16757H29.7144C27.0866 7.16757 24.4051 9.22518 23.725 11.7634L20.708 23.0231C20.0279 25.5613 21.6067 27.6189 24.2344 27.6189H35.6535L36.5022 24.4513L36.5155 24.4018L37.7337 19.8555C37.9717 18.9672 37.4191 18.247 36.4994 18.247H31.5036C30.5839 18.247 29.6453 18.9672 29.4073 19.8555C29.1693 20.7439 29.7219 21.4641 30.6416 21.4641L33.9721 21.4641L33.1849 24.4018H25.0965C24.3081 24.4018 23.8345 23.7846 24.0385 23.0231L27.0555 11.7634C27.2596 11.0019 28.064 10.3846 28.8524 10.3846H57.8757L57.027 13.5522ZM22.2584 12.7974C22.0204 13.6858 21.0819 14.406 20.1622 14.406L9.21892 14.406C8.29922 14.406 7.74662 13.6858 7.98465 12.7974C8.22269 11.9091 9.16123 11.1889 10.0809 11.1889L21.0242 11.1889C21.9439 11.1889 22.4965 11.9091 22.2584 12.7974ZM44.9741 15.0299H51.3973C52.1856 15.0299 52.6593 15.6472 52.4552 16.4087L50.6696 23.0726C50.4656 23.8341 49.6612 24.4513 48.8728 24.4513H42.4496C41.6613 24.4513 41.1877 23.8341 41.3917 23.0726L43.1773 16.4087C43.3813 15.6472 44.1858 15.0299 44.9741 15.0299ZM39.8467 16.4087C40.5268 13.8705 43.2084 11.8129 45.8361 11.8129H52.2593C54.887 11.8129 56.4659 13.8705 55.7858 16.4087L54.0002 23.0726C53.3201 25.6108 50.6386 27.6684 48.0108 27.6684H41.5876C38.9599 27.6684 37.381 25.6108 38.0611 23.0726L39.8467 16.4087ZM18.9307 19.0018C19.8504 19.0018 20.789 18.2816 21.027 17.3932C21.265 16.5049 20.7124 15.7847 19.7927 15.7847L8.84949 15.7847C7.92979 15.7847 6.99125 16.5049 6.75321 17.3932C6.51517 18.2816 7.06778 19.0018 7.98748 19.0018H18.9307ZM19.7956 21.989C19.5575 22.8774 18.619 23.5976 17.6993 23.5976L6.75604 23.5976C5.83633 23.5976 5.28373 22.8774 5.52177 21.989C5.75981 21.1007 6.69834 20.3805 7.61805 20.3805L18.5613 20.3805C19.481 20.3805 20.0336 21.1007 19.7956 21.989Z" fill="#166534"/>
</svg>
